15_ID_stride2.mot
nRows=7
nColumns=38

name 15_ID_stride2.mot
datacolumns 38
datarows 7
range 0.3400000000 0.3700000000
endheader
time	pelvis_tilt_moment	pelvis_list_moment	pelvis_rotation_moment	pelvis_tx_force	pelvis_ty_force	pelvis_tz_force	hip_flexion_r_moment	hip_adduction_r_moment	hip_rotation_r_moment	knee_angle_r_moment	ankle_angle_r_moment	subtalar_angle_r_moment	mtp_angle_r_moment	hip_flexion_l_moment	hip_adduction_l_moment	hip_rotation_l_moment	knee_angle_l_moment	ankle_angle_l_moment	subtalar_angle_l_moment	mtp_angle_l_moment	lumbar_extension_moment	lumbar_bending_moment	lumbar_rotation_moment	arm_flex_r_moment	arm_add_r_moment	arm_rot_r_moment	elbow_flex_r_moment	pro_sup_r_moment	wrist_flex_r_moment	wrist_dev_r_moment	arm_flex_l_moment	arm_add_l_moment	arm_rot_l_moment	elbow_flex_l_moment	pro_sup_l_moment	wrist_flex_l_moment	wrist_dev_l_moment
        0.3400000000	        9.6652589964	      -40.9004609365	       13.1030838298	        2.9646092711	      397.4415640934	      167.3389886277	       51.0821104437	        0.4136991325	       -2.1801693156	       16.1752952474	        3.9378632025	       -0.3900646593	        0.1946014366	      -44.3635755762	       26.4300076240	      -12.2163345705	      -29.1852498274	        9.3306212814	       -6.9386775821	        0.2197583593	      -16.0867012146	        5.4650854528	        3.4293339083	       -6.2667194599	        1.4036872500	        1.6318729164	       -1.3235095254	        0.0539132408	        0.1199965428	        0.2081932074	       -6.7551677502	       -1.2948670202	       -0.0520193096	       -0.9475777255	        0.0183656897	       -0.0173202500	        0.1538861968	
        0.3450000000	      -12.7968819706	        7.9735210840	       31.0739568586	       22.1848722834	      401.5505549529	      166.8672067797	       50.0359450397	       -3.3705016402	       -1.0342785924	       16.3339484217	        3.8469674904	       -0.3966180586	        0.1876315785	      -18.9553283526	       -3.8380620335	       -7.2027157464	       -8.7843713243	       10.7229843463	       -4.4905101908	        0.2784788535	       -1.1296326061	       10.7974127643	        9.5835201839	       -6.9707615277	        1.8436969786	        2.3182348223	       -0.9621042381	        0.0713071816	        0.2045264491	        0.1990308376	       -9.0268973826	       -1.5860370882	       -0.3447282278	       -0.7810092039	        0.0016761710	       -0.0518864293	        0.1340322523	
        0.3500000000	      -39.8337907205	       58.7527458211	       49.2516619835	       28.5176374671	      342.2347285537	      123.2986366323	       53.3113102617	       -4.3992475595	       -0.3293142599	       16.9602689354	        3.8810868502	       -0.4032245541	        0.1882664672	       -4.9759396221	      -41.2585000410	       -1.9034392378	       10.7294377185	        6.1140209696	       -0.6201027168	        0.3205960916	       10.2083830944	       16.2723461623	       13.7211830592	       -6.8111982685	        1.8017111604	        2.4743515857	       -0.4673630802	        0.0706919917	        0.2479004898	        0.1677923319	       -9.7832096148	       -1.4156944179	       -0.3531771231	       -0.4722729100	       -0.0112449667	       -0.0535790153	        0.1004266422	
        0.3550000000	      -64.0032574816	       93.0083015946	       65.2225662470	       30.0135714314	      197.9940062748	       27.1688418774	       61.0518493085	       -4.6101844200	       -0.0583819486	       18.0661598122	        3.9792086707	       -0.4061362795	        0.1912330608	       -0.4396683433	      -77.9105690839	        1.4973540028	       24.1861398354	       -6.4587605369	        3.9578293895	        0.3382565550	       17.2126550925	       20.3227727063	       15.5960207294	       -6.2466065453	        1.6228732149	        2.5020525223	        0.1079665766	        0.0657856576	        0.2632807442	        0.1141343503	       -9.9717262951	       -0.9687969547	       -0.3312567170	       -0.0474629041	       -0.0212996909	       -0.0528510566	        0.0560796225	
        0.3600000000	      -78.6333787579	      104.0767057684	       76.6734832372	       19.2773337224	       16.6418189036	      -69.9941553219	       70.0245294715	       -2.6134932077	       -0.2563706754	       19.3302692759	        4.1268285328	       -0.3966661528	        0.1986740560	      -21.6344705731	     -105.1714208233	        2.3756106289	       29.4891426706	      -27.4150184834	        8.0825379301	        0.3369862808	       19.9642644361	       22.1135887632	       15.7911903074	       -5.0230474020	        1.2573471831	        2.1795380715	        0.6971013643	        0.0487269740	        0.2513837358	        0.0505102151	       -8.8701596591	       -0.3713454914	       -0.1703184559	        0.4358972911	       -0.0286350966	       -0.0322511814	        0.0064205157	
        0.3650000000	      -75.0471744279	       78.2440707251	       82.1662493297	        5.9823989443	     -158.5272984385	     -126.2738512002	       76.8479646025	        0.0483096614	       -0.7930098969	       20.4272804299	        4.2398136463	       -0.3733126667	        0.2059249237	      -66.4994497963	     -113.7144418106	       -2.5232999013	       24.4324601464	      -52.0417033085	        9.4327309638	        0.3097826267	       20.5052601205	       21.2594799420	       14.2246292582	       -3.7122386289	        0.9569885874	        1.7868251340	        1.2691500348	        0.0284995646	        0.2253049875	       -0.0153059744	       -7.3015720193	        0.1547719479	       -0.0001143316	        0.9508445706	       -0.0344162109	       -0.0065490552	       -0.0447505534	
        0.3700000000	      -56.3369111412	       29.5852710425	       81.2120663798	       -2.2411715896	     -296.0522928436	     -120.9915015451	       78.7509784425	        2.8064414208	       -1.4734759770	       21.2137771399	        4.2658230200	       -0.3384211133	        0.2116112727	     -123.2531789002	     -105.0998089233	      -13.6456977827	       16.2646217588	      -76.6551042810	        7.8491699268	        0.2623113449	       22.1828495071	       19.0114767102	       11.4104122828	       -2.5741069405	        0.7918212360	        1.3990357473	        1.8660873749	        0.0061868356	        0.1957101773	       -0.0837468861	       -5.6060340367	        0.5657344402	        0.1839689601	        1.5372056282	       -0.0397804656	        0.0258760401	       -0.0997292251	
